<svg width="100" height="100" viewBox="0 0 100 100" fill="none" xmlns="http://www.w3.org/2000/svg">
<path d="M62.2134 7.88946L59.7311 13.2998C59.3607 14.1071 58.7664 14.7912 58.0187 15.2708C57.271 15.7503 56.4014 16.0053 55.5132 16.0053H12.9956C10.4327 16.0053 8.35498 18.083 8.35498 20.6459V69.3172C8.35498 71.8801 10.4327 73.9578 12.9956 73.9578H91.0423C93.6052 73.9578 95.6829 71.8801 95.6829 69.3172V9.82462C95.6829 7.26172 93.6052 5.18399 91.0423 5.18399H66.4313C65.5431 5.184 64.6735 5.43892 63.9258 5.91849C63.1781 6.39806 62.5838 7.08213 62.2134 7.88946Z" fill="#948E8C"/>
<path d="M91.4642 77.0816V39.2918C91.4642 36.7289 89.3864 34.6512 86.8235 34.6512H44.3058C43.4175 34.6512 42.5479 34.3962 41.8002 33.9167C41.0526 33.4371 40.4582 32.753 40.0878 31.9457L37.6056 26.5353C37.2351 25.728 36.6408 25.0439 35.8931 24.5644C35.1455 24.0848 34.2759 23.8299 33.3876 23.8299H8.77685C6.21396 23.8299 4.13623 25.9076 4.13623 28.4705V86.0086C4.13623 88.5715 6.21396 90.6492 8.77685 90.6492H86.8235C87.094 90.6492 87.3589 90.6248 87.6167 90.5803C87.9368 90.6246 88.2632 90.6492 88.5956 90.6492C92.5097 90.6492 95.6825 87.4764 95.6825 83.5623C95.6825 80.6693 93.9485 78.183 91.4642 77.0816Z" fill="#566885"/>
<path d="M91.4644 61.9805V82.7557H91.4728C91.4728 83.9182 92.4151 84.8605 93.5776 84.8605C94.7401 84.8605 95.6825 83.9182 95.6825 82.7557V61.9805H91.4644Z" fill="#948E8C"/>
</svg>
