<?xml version="1.0" encoding="UTF-8"?>
<svg version="1.1" viewBox="0 0 2000 434" xmlns="http://www.w3.org/2000/svg">
<g transform="translate(-1.2121 1.1108)">
<svg width="2e3" height="434" data-background-color="#ffffff" viewBox="0 0 396 86" xmlns="http://www.w3.org/2000/svg" xmlns:xlink="http://www.w3.org/1999/xlink">
<g transform="translate(.24 -.22012)">
<svg width="395.52" height="86.44" viewBox="0 0 395.52 86.44023709081858">
<svg width="395.52" height="86.44" viewBox="0 0 534.9429886574566 116.91089899277313">
<rect class="rect-o-0" x="119.83" width="5.4161" height="116.91" rx="1%" fill="#6b7280" stroke="transparent" stroke-width="0" data-fill-palette-color="primary" data-palette-color="#6b7280"/>
<g transform="translate(139.42 .29082)">
<svg width="395.52" height="116.33" viewBox="0 0 395.52 116.3292527291275">
<svg width="395.52" height="116.33" viewBox="0 0 395.52 116.3292527291275">
<svg width="395.52" height="65.035" viewBox="0 0 395.52 65.03516778523489">
<g>
<svg width="395.52" height="65.035" data-palette-color="#6b7280" viewBox="3.549999237060547 -35.599998474121094 238.39999389648438 36.19999694824219">
<svg/>
<g class="undefined-text-0" data-fill-palette-color="primary">
<path d="m14.9 0h-11.35v-35h11.35c4.1 0 7.477 0.717 10.13 2.15 2.647 1.433 4.613 3.457 5.9 6.07 1.28 2.62 1.92 5.73 1.92 9.33 0 3.567-0.64 6.657-1.92 9.27-1.287 2.62-3.253 4.637-5.9 6.05-2.653 1.42-6.03 2.13-10.13 2.13zm-6.05-30.55v26.05h5.85c3.167 0 5.677-0.517 7.53-1.55 1.847-1.033 3.18-2.517 4-4.45 0.813-1.933 1.22-4.25 1.22-6.95s-0.407-5.033-1.22-7c-0.82-1.967-2.153-3.477-4-4.53-1.853-1.047-4.363-1.57-7.53-1.57zm30.8 30.55h-5.6l12.9-35h5.8l12.8 35h-5.6l-3-8.55h-14.3zm10.15-28.7-5.65 15.95h11.3zm30.35 28.7h-5.3v-30.7h-10.35v-4.3h25.95v4.3h-10.3zm14.8 0h-5.6l12.9-35h5.8l12.8 35h-5.6l-3-8.55h-14.3zm10.15-28.7-5.65 15.95h11.3zm34.25 28.7h-13.6v-35h13.2c3.633 0 6.383 0.85 8.25 2.55s2.8 3.833 2.8 6.4c0 2.233-0.6 4.007-1.8 5.32-1.2 1.32-2.65 2.213-4.35 2.68 1.333 0.267 2.527 0.8 3.58 1.6 1.047 0.8 1.87 1.8 2.47 3s0.9 2.5 0.9 3.9c0 1.8-0.44 3.427-1.32 4.88-0.887 1.447-2.18 2.587-3.88 3.42s-3.783 1.25-6.25 1.25zm-8.3-30.7v10.7h7.25c2.033 0 3.583-0.477 4.65-1.43 1.067-0.947 1.6-2.253 1.6-3.92 0-1.633-0.523-2.933-1.57-3.9-1.053-0.967-2.647-1.45-4.78-1.45zm0 14.8v11.55h7.6c2.133 0 3.793-0.5 4.98-1.5 1.18-1 1.77-2.4 1.77-4.2s-0.617-3.227-1.85-4.28c-1.233-1.047-2.9-1.57-5-1.57zm28.45 15.9h-5.6l12.9-35h5.8l12.8 35h-5.6l-3-8.55h-14.3zm10.15-28.7-5.65 15.95h11.3zm32.2 29.3c-2.567 0-4.817-0.45-6.75-1.35s-3.44-2.183-4.52-3.85c-1.087-1.667-1.647-3.65-1.68-5.95h5.6c0.033 1.867 0.683 3.45 1.95 4.75s3.05 1.95 5.35 1.95c2.033 0 3.627-0.493 4.78-1.48 1.147-0.98 1.72-2.237 1.72-3.77 0-1.233-0.273-2.233-0.82-3-0.553-0.767-1.303-1.4-2.25-1.9-0.953-0.5-2.047-0.95-3.28-1.35s-2.533-0.833-3.9-1.3c-2.7-0.9-4.723-2.067-6.07-3.5-1.353-1.433-2.03-3.317-2.03-5.65-0.033-1.967 0.427-3.683 1.38-5.15 0.947-1.467 2.28-2.61 4-3.43 1.713-0.813 3.72-1.22 6.02-1.22 2.267 0 4.26 0.417 5.98 1.25 1.713 0.833 3.053 1.99 4.02 3.47 0.967 1.487 1.467 3.213 1.5 5.18h-5.6c0-0.9-0.233-1.76-0.7-2.58-0.467-0.813-1.15-1.487-2.05-2.02s-2-0.8-3.3-0.8c-1.667-0.033-3.04 0.383-4.12 1.25-1.087 0.867-1.63 2.067-1.63 3.6 0 1.367 0.4 2.417 1.2 3.15s1.9 1.34 3.3 1.82c1.4 0.487 3 1.047 4.8 1.68 1.733 0.567 3.283 1.25 4.65 2.05s2.46 1.85 3.28 3.15c0.813 1.3 1.22 2.95 1.22 4.95 0 1.767-0.45 3.407-1.35 4.92-0.9 1.52-2.25 2.753-4.05 3.7-1.8 0.953-4.017 1.43-6.65 1.43zm40.1-0.6h-22.25v-35h22.25v4.3h-16.95v10.9h15.45v4.2h-15.45v11.3h16.95z" fill="#6b7280" font-family="none" font-size="none" font-weight="none" stroke-dasharray="" stroke-miterlimit="10" text-anchor="none" style="mix-blend-mode:normal" data-fill-palette-color="primary" xmlns="http://www.w3.org/2000/svg"/>
</g>
</svg>
</g>
</svg>
<g transform="translate(0 79.213)">
<svg width="148.04" height="37.116" viewBox="0 0 148.03943098967736 37.115835704697986">
<g>
<svg width="148.04" height="37.116" data-palette-color="#6b7280" viewBox="2 -38.79999923706055 157.1300048828125 39.39999771118164">
<path class="undefined-text-1" d="m9.6-2.3q2.8 0 4.63-0.93 1.82-0.92 1.82-3.12 0-1.05-0.32-1.8-0.33-0.75-1.08-1.35t-1.97-1.15q-1.23-0.55-3.03-1.3-1.45-0.6-2.75-1.23-1.3-0.62-2.3-1.45-1-0.82-1.6-1.97t-0.6-2.8q0-3.15 2.38-5.1 2.37-1.95 6.52-1.95 2.65 0 4.38 0.45 1.72 0.45 2.42 0.8l-0.75 2.9q-0.6-0.3-2.02-0.8-1.43-0.5-4.18-0.5-1.1 0-2.07 0.22-0.98 0.23-1.73 0.7-0.75 0.48-1.2 1.2-0.45 0.73-0.45 1.78t0.4 1.8 1.18 1.33q0.77 0.57 1.9 1.07 1.12 0.5 2.57 1.1 1.5 0.6 2.88 1.22 1.37 0.63 2.42 1.5 1.05 0.88 1.7 2.1 0.65 1.23 0.65 3.08 0 3.5-2.62 5.3-2.63 1.8-7.18 1.8-3.4 0-5.2-0.57-1.8-0.58-2.4-0.88l0.85-2.95q0.15 0.1 0.65 0.32 0.5 0.23 1.35 0.5 0.85 0.28 2.03 0.48 1.17 0.2 2.72 0.2zm24.25-0.05q1.9 0 3.32-0.13 1.43-0.12 2.43-0.32v-9.1q-0.55-0.25-1.75-0.53-1.2-0.27-3.3-0.27-1.2 0-2.5 0.17-1.3 0.18-2.4 0.75-1.1 0.58-1.8 1.58t-0.7 2.65q0 1.45 0.47 2.45 0.48 1 1.35 1.6 0.88 0.6 2.1 0.87 1.23 0.28 2.78 0.28zm-0.3-24.1q2.55 0 4.32 0.72 1.78 0.73 2.88 2 1.1 1.28 1.6 3.03t0.5 3.8v16.3q-0.5 0.15-1.45 0.32-0.95 0.18-2.2 0.38t-2.78 0.33q-1.52 0.12-3.12 0.12-2.05 0-3.78-0.45-1.72-0.45-3-1.43-1.27-0.97-2-2.5-0.72-1.52-0.72-3.72 0-2.1 0.8-3.6t2.25-2.48q1.45-0.97 3.45-1.42t4.35-0.45q0.7 0 1.47 0.07 0.78 0.08 1.5 0.2 0.73 0.13 1.25 0.25 0.53 0.13 0.73 0.23v-1.6q0-1.35-0.2-2.63-0.2-1.27-0.88-2.3-0.67-1.02-1.9-1.65-1.22-0.62-3.22-0.62-2.85 0-4.25 0.4t-2.05 0.65l-0.45-2.85q0.85-0.4 2.62-0.75 1.78-0.35 4.28-0.35zm25.4 22.95q1.05-2.15 2.15-4.93 1.1-2.77 2.12-5.75 1.03-2.97 1.9-6 0.88-3.02 1.47-5.67h3.25q-0.89 3.55-2 7-1.09 3.45-2.32 6.75-1.22 3.3-2.55 6.35-1.32 3.05-2.57 5.75h-3.1q-1.3-2.7-2.6-5.75t-2.53-6.35q-1.22-3.3-2.32-6.75t-2-7h3.45q0.6 2.65 1.47 5.67 0.88 3.03 1.9 6 1.03 2.98 2.13 5.75 1.1 2.78 2.15 4.93zm14.64-9.45q0-3.4 0.98-5.93 0.97-2.52 2.55-4.22 1.57-1.7 3.6-2.53 2.02-0.82 4.17-0.82 4.75 0 7.58 3.1 2.82 3.1 2.82 9.55 0 0.4-0.02 0.8-0.03 0.4-0.08 0.75h-18.15q0.15 4.75 2.35 7.3t7 2.55q2.65 0 4.2-0.5t2.25-0.85l0.6 2.8q-0.7 0.4-2.62 0.95-1.93 0.55-4.53 0.55-3.4 0-5.8-1t-3.95-2.8-2.25-4.28q-0.7-2.47-0.7-5.42zm3.55-2.05h14.8q-0.1-4.05-1.9-6.3t-5.1-2.25q-1.75 0-3.12 0.7-1.38 0.7-2.4 1.87-1.03 1.18-1.6 2.73-0.58 1.55-0.68 3.25zm44.95 12.65q1.9 0 3.32-0.13 1.43-0.12 2.43-0.32v-9.1q-0.55-0.25-1.75-0.53-1.2-0.27-3.3-0.27-1.2 0-2.5 0.17-1.3 0.18-2.4 0.75-1.1 0.58-1.8 1.58t-0.7 2.65q0 1.45 0.47 2.45 0.48 1 1.35 1.6 0.88 0.6 2.1 0.87 1.23 0.28 2.78 0.28zm-0.3-24.1q2.55 0 4.32 0.72 1.78 0.73 2.88 2 1.1 1.28 1.6 3.03t0.5 3.8v16.3q-0.5 0.15-1.45 0.32-0.95 0.18-2.2 0.38t-2.78 0.33q-1.52 0.12-3.12 0.12-2.05 0-3.78-0.45-1.72-0.45-3-1.43-1.27-0.97-2-2.5-0.72-1.52-0.72-3.72 0-2.1 0.8-3.6t2.25-2.48q1.45-0.97 3.45-1.42t4.35-0.45q0.7 0 1.47 0.07 0.78 0.08 1.5 0.2 0.73 0.13 1.25 0.25 0.53 0.13 0.73 0.23v-1.6q0-1.35-0.2-2.63-0.2-1.27-0.88-2.3-0.67-1.02-1.9-1.65-1.22-0.62-3.22-0.62-2.85 0-4.25 0.4t-2.05 0.65l-0.45-2.85q0.85-0.4 2.62-0.75 1.78-0.35 4.28-0.35zm24.6 24.2-0.45 2.7q-1.65-0.05-2.88-0.42-1.22-0.38-2.05-1.16-0.82-0.77-1.25-2-0.42-1.22-0.42-3.07v-32l3.25-0.6v32.5q0 1.2 0.22 1.92 0.23 0.73 0.68 1.15 0.45 0.43 1.17 0.63 0.73 0.2 1.73 0.35zm12.74 0-0.45 2.7q-1.65-0.05-2.87-0.42-1.23-0.38-2.05-1.16-0.83-0.77-1.25-2-0.43-1.22-0.43-3.07v-32l3.25-0.6v32.5q0 1.2 0.23 1.92 0.22 0.73 0.67 1.15 0.45 0.43 1.18 0.63 0.72 0.2 1.72 0.35z" fill="#6b7280" data-fill-palette-color="secondary"/>
</svg>
</g>
</svg>
</g>
</svg>
</svg>
</g>
<g transform="translate(0 .29082)">
<svg width="105.65" height="116.33" viewBox="0 0 105.650398969695 116.3292527291275">
<svg class="icon-icon-0" width="105.65" height="116.33" enable-background="new 0 0 100 100" data-fill-palette-color="accent" version="1.1" viewBox="4.927000045776367 2.1700000762939453 86.88400268554688 95.66600036621094" xml:space="preserve" xmlns="http://www.w3.org/2000/svg" xmlns:xlink="http://www.w3.org/1999/xlink"><path d="M74.239 2.17h-9.761v29.286H32.261V2.17h-9.762c-9.704 0-17.572 7.867-17.572 17.572v60.522c0 9.212 7.09 16.751 16.107 17.498V63.671h8.135v34.165h10.738V63.671h35.797v34.091c9.018-0.747 16.107-8.286 16.107-17.498V19.742C91.812 10.037 83.943 2.17 74.239 2.17z" fill="#6b7280" data-fill-palette-color="accent"/></svg>
</svg>
</g>
</svg>
</svg>
<rect width="395.52" height="86.44" fill="none" visibility="hidden"/>
</g>
</svg>
</g>
</svg>
