<svg xmlns="http://www.w3.org/2000/svg" version="1.1" xmlns:xlink="http://www.w3.org/1999/xlink" xmlns:svgjs="http://svgjs.dev/svgjs" width="2000" height="434" viewBox="0 0 2000 434"><g transform="matrix(1,0,0,1,-1.2120998385313442,1.1108307989259742)"><svg viewBox="0 0 396 86" data-background-color="#ffffff" preserveAspectRatio="xMidYMid meet" height="434" width="2000" xmlns="http://www.w3.org/2000/svg" xmlns:xlink="http://www.w3.org/1999/xlink"><g id="tight-bounds" transform="matrix(1,0,0,1,0.23999580918524543,-0.2201185454092922)"><svg viewBox="0 0 395.52 86.44023709081858" height="86.44023709081858" width="395.52"><g><svg viewBox="0 0 534.9429886574566 116.91089899277313" height="86.44023709081858" width="395.52"><g><rect width="5.416091209372349" height="116.91089899277313" x="119.82864820888963" y="0" fill="#6b7280" opacity="1" stroke-width="0" stroke="transparent" fill-opacity="1" class="rect-o-0" data-fill-palette-color="primary" rx="1%" id="o-0" data-palette-color="#6b7280"></rect></g><g transform="matrix(1,0,0,1,139.4229886574566,0.29082313182281183)"><svg viewBox="0 0 395.52 116.3292527291275" height="116.3292527291275" width="395.52"><g><svg viewBox="0 0 395.52 116.3292527291275" height="116.3292527291275" width="395.52"><g><svg viewBox="0 0 395.52 65.03516778523489" height="65.03516778523489" width="395.52"><g transform="matrix(1,0,0,1,0,0)"><svg width="395.52" viewBox="3.549999237060547 -35.599998474121094 238.39999389648438 36.19999694824219" height="65.03516778523489" data-palette-color="#6b7280"><svg></svg><g class="undefined-text-0" data-fill-palette-color="primary" id="text-0"><path xmlns="http://www.w3.org/2000/svg" d="M14.9 0h-11.35v-35h11.35c4.1 0 7.477 0.717 10.13 2.15 2.647 1.433 4.613 3.457 5.9 6.07 1.28 2.62 1.92 5.73 1.92 9.33v0c0 3.567-0.64 6.657-1.92 9.27-1.287 2.62-3.253 4.637-5.9 6.05-2.653 1.42-6.03 2.13-10.13 2.13zM8.85-30.55v26.05h5.85c3.167 0 5.677-0.517 7.53-1.55 1.847-1.033 3.18-2.517 4-4.45 0.813-1.933 1.22-4.25 1.22-6.95v0c0-2.7-0.407-5.033-1.22-7-0.82-1.967-2.153-3.477-4-4.53-1.853-1.047-4.363-1.57-7.53-1.57v0zM39.65 0h-5.6l12.9-35h5.8l12.8 35h-5.6l-3-8.55h-14.3zM49.8-28.7l-5.65 15.95h11.3zM80.15 0h-5.3v-30.7h-10.35v-4.3h25.95v4.3h-10.3zM94.95 0h-5.6l12.9-35h5.8l12.8 35h-5.6l-3-8.55h-14.3zM105.1-28.7l-5.65 15.95h11.3zM139.35 0h-13.6v-35h13.2c3.633 0 6.383 0.85 8.25 2.55 1.867 1.7 2.8 3.833 2.8 6.4v0c0 2.233-0.6 4.007-1.8 5.32-1.2 1.32-2.65 2.213-4.35 2.68v0c1.333 0.267 2.527 0.8 3.58 1.6 1.047 0.8 1.87 1.8 2.47 3 0.6 1.2 0.9 2.5 0.9 3.9v0c0 1.8-0.44 3.427-1.32 4.88-0.887 1.447-2.18 2.587-3.88 3.42-1.7 0.833-3.783 1.25-6.25 1.25zM131.05-30.7v10.7h7.25c2.033 0 3.583-0.477 4.65-1.43 1.067-0.947 1.6-2.253 1.6-3.92v0c0-1.633-0.523-2.933-1.57-3.9-1.053-0.967-2.647-1.45-4.78-1.45v0zM131.05-15.9v11.55h7.6c2.133 0 3.793-0.5 4.98-1.5 1.18-1 1.77-2.4 1.77-4.2v0c0-1.8-0.617-3.227-1.85-4.28-1.233-1.047-2.9-1.57-5-1.57v0zM159.5 0h-5.6l12.9-35h5.8l12.8 35h-5.6l-3-8.55h-14.3zM169.65-28.7l-5.65 15.95h11.3zM201.85 0.6v0c-2.567 0-4.817-0.45-6.75-1.35-1.933-0.9-3.44-2.183-4.52-3.85-1.087-1.667-1.647-3.65-1.68-5.95v0h5.6c0.033 1.867 0.683 3.45 1.95 4.75 1.267 1.3 3.05 1.95 5.35 1.95v0c2.033 0 3.627-0.493 4.78-1.48 1.147-0.98 1.72-2.237 1.72-3.77v0c0-1.233-0.273-2.233-0.82-3-0.553-0.767-1.303-1.4-2.25-1.9-0.953-0.5-2.047-0.95-3.28-1.35-1.233-0.4-2.533-0.833-3.9-1.3v0c-2.7-0.9-4.723-2.067-6.07-3.5-1.353-1.433-2.03-3.317-2.03-5.65v0c-0.033-1.967 0.427-3.683 1.38-5.15 0.947-1.467 2.28-2.61 4-3.43 1.713-0.813 3.72-1.22 6.02-1.22v0c2.267 0 4.26 0.417 5.98 1.25 1.713 0.833 3.053 1.99 4.02 3.47 0.967 1.487 1.467 3.213 1.5 5.18v0h-5.6c0-0.9-0.233-1.76-0.7-2.58-0.467-0.813-1.15-1.487-2.05-2.02-0.9-0.533-2-0.8-3.3-0.8v0c-1.667-0.033-3.04 0.383-4.12 1.25-1.087 0.867-1.63 2.067-1.63 3.6v0c0 1.367 0.4 2.417 1.2 3.15 0.8 0.733 1.9 1.34 3.3 1.82 1.4 0.487 3 1.047 4.8 1.68v0c1.733 0.567 3.283 1.25 4.65 2.05 1.367 0.8 2.46 1.85 3.28 3.15 0.813 1.3 1.22 2.95 1.22 4.95v0c0 1.767-0.45 3.407-1.35 4.92-0.9 1.52-2.25 2.753-4.05 3.7-1.8 0.953-4.017 1.43-6.65 1.43zM241.95 0h-22.25v-35h22.25v4.3h-16.95v10.9h15.45v4.2h-15.45v11.3h16.95z" fill="#6b7280" fill-rule="nonzero" stroke="none" stroke-width="1" stroke-linecap="butt" stroke-linejoin="miter" stroke-miterlimit="10" stroke-dasharray="" stroke-dashoffset="0" font-family="none" font-weight="none" font-size="none" text-anchor="none" style="mix-blend-mode: normal" data-fill-palette-color="primary" opacity="1"></path></g></svg></g></svg></g><g transform="matrix(1,0,0,1,0,79.21341702442952)"><svg viewBox="0 0 148.03943098967736 37.115835704697986" height="37.115835704697986" width="148.03943098967736"><g transform="matrix(1,0,0,1,0,0)"><svg width="148.03943098967736" viewBox="2 -38.79999923706055 157.1300048828125 39.39999771118164" height="37.115835704697986" data-palette-color="#6b7280"><path d="M9.6-2.3L9.6-2.3Q12.4-2.3 14.23-3.23 16.05-4.15 16.05-6.35L16.05-6.35Q16.05-7.4 15.73-8.15 15.4-8.9 14.65-9.5 13.9-10.1 12.68-10.65 11.45-11.2 9.65-11.95L9.65-11.95Q8.2-12.55 6.9-13.18 5.6-13.8 4.6-14.63 3.6-15.45 3-16.6 2.4-17.75 2.4-19.4L2.4-19.4Q2.4-22.55 4.78-24.5 7.15-26.45 11.3-26.45L11.3-26.45Q13.95-26.45 15.68-26 17.4-25.55 18.1-25.2L18.1-25.2 17.35-22.3Q16.75-22.6 15.33-23.1 13.9-23.6 11.15-23.6L11.15-23.6Q10.05-23.6 9.08-23.38 8.1-23.15 7.35-22.68 6.6-22.2 6.15-21.48 5.7-20.75 5.7-19.7L5.7-19.7Q5.7-18.65 6.1-17.9 6.5-17.15 7.28-16.57 8.05-16 9.18-15.5 10.3-15 11.75-14.4L11.75-14.4Q13.25-13.8 14.63-13.18 16-12.55 17.05-11.68 18.1-10.8 18.75-9.58 19.4-8.35 19.4-6.5L19.4-6.5Q19.4-3 16.78-1.2 14.15 0.6 9.6 0.6L9.6 0.6Q6.2 0.6 4.4 0.03 2.6-0.55 2-0.85L2-0.85 2.85-3.8Q3-3.7 3.5-3.48 4-3.25 4.85-2.98 5.7-2.7 6.88-2.5 8.05-2.3 9.6-2.3ZM33.85-2.35L33.85-2.35Q35.75-2.35 37.17-2.48 38.6-2.6 39.6-2.8L39.6-2.8 39.6-11.9Q39.05-12.15 37.85-12.43 36.65-12.7 34.55-12.7L34.55-12.7Q33.35-12.7 32.05-12.53 30.75-12.35 29.65-11.78 28.55-11.2 27.85-10.2 27.15-9.2 27.15-7.55L27.15-7.55Q27.15-6.1 27.62-5.1 28.1-4.1 28.97-3.5 29.85-2.9 31.07-2.63 32.3-2.35 33.85-2.35ZM33.55-26.45L33.55-26.45Q36.1-26.45 37.87-25.73 39.65-25 40.75-23.73 41.85-22.45 42.35-20.7 42.85-18.95 42.85-16.9L42.85-16.9 42.85-0.6Q42.35-0.45 41.4-0.28 40.45-0.1 39.2 0.1 37.95 0.3 36.42 0.43 34.9 0.55 33.3 0.55L33.3 0.55Q31.25 0.55 29.52 0.1 27.8-0.35 26.52-1.33 25.25-2.3 24.52-3.83 23.8-5.35 23.8-7.55L23.8-7.55Q23.8-9.65 24.6-11.15 25.4-12.65 26.85-13.63 28.3-14.6 30.3-15.05 32.3-15.5 34.65-15.5L34.65-15.5Q35.35-15.5 36.12-15.43 36.9-15.35 37.62-15.23 38.35-15.1 38.87-14.98 39.4-14.85 39.6-14.75L39.6-14.75 39.6-16.35Q39.6-17.7 39.4-18.98 39.2-20.25 38.52-21.28 37.85-22.3 36.62-22.93 35.4-23.55 33.4-23.55L33.4-23.55Q30.55-23.55 29.15-23.15 27.75-22.75 27.1-22.5L27.1-22.5 26.65-25.35Q27.5-25.75 29.27-26.1 31.05-26.45 33.55-26.45ZM58.95-3.5L58.95-3.5Q60-5.65 61.1-8.43 62.2-11.2 63.22-14.18 64.25-17.15 65.12-20.18 66-23.2 66.59-25.85L66.59-25.85 69.84-25.85Q68.95-22.3 67.84-18.85 66.75-15.4 65.52-12.1 64.3-8.8 62.97-5.75 61.65-2.7 60.4 0L60.4 0 57.3 0Q56-2.7 54.7-5.75 53.4-8.8 52.17-12.1 50.95-15.4 49.85-18.85 48.75-22.3 47.85-25.85L47.85-25.85 51.3-25.85Q51.9-23.2 52.77-20.18 53.65-17.15 54.67-14.18 55.7-11.2 56.8-8.43 57.9-5.65 58.95-3.5ZM73.59-12.95L73.59-12.95Q73.59-16.35 74.57-18.88 75.54-21.4 77.12-23.1 78.69-24.8 80.72-25.63 82.74-26.45 84.89-26.45L84.89-26.45Q89.64-26.45 92.47-23.35 95.29-20.25 95.29-13.8L95.29-13.8Q95.29-13.4 95.27-13 95.24-12.6 95.19-12.25L95.19-12.25 77.04-12.25Q77.19-7.5 79.39-4.95 81.59-2.4 86.39-2.4L86.39-2.4Q89.04-2.4 90.59-2.9 92.14-3.4 92.84-3.75L92.84-3.75 93.44-0.95Q92.74-0.55 90.82 0 88.89 0.55 86.29 0.55L86.29 0.55Q82.89 0.55 80.49-0.45 78.09-1.45 76.54-3.25 74.99-5.05 74.29-7.53 73.59-10 73.59-12.95ZM77.14-15L91.94-15Q91.84-19.05 90.04-21.3 88.24-23.55 84.94-23.55L84.94-23.55Q83.19-23.55 81.82-22.85 80.44-22.15 79.42-20.98 78.39-19.8 77.82-18.25 77.24-16.7 77.14-15L77.14-15ZM122.09-2.35L122.09-2.35Q123.99-2.35 125.41-2.48 126.84-2.6 127.84-2.8L127.84-2.8 127.84-11.9Q127.29-12.15 126.09-12.43 124.89-12.7 122.79-12.7L122.79-12.7Q121.59-12.7 120.29-12.53 118.99-12.35 117.89-11.78 116.79-11.2 116.09-10.2 115.39-9.2 115.39-7.55L115.39-7.55Q115.39-6.1 115.86-5.1 116.34-4.1 117.21-3.5 118.09-2.9 119.31-2.63 120.54-2.35 122.09-2.35ZM121.79-26.45L121.79-26.45Q124.34-26.45 126.11-25.73 127.89-25 128.99-23.73 130.09-22.45 130.59-20.7 131.09-18.95 131.09-16.9L131.09-16.9 131.09-0.6Q130.59-0.45 129.64-0.28 128.69-0.1 127.44 0.1 126.19 0.3 124.66 0.43 123.14 0.55 121.54 0.55L121.54 0.55Q119.49 0.55 117.76 0.1 116.04-0.35 114.76-1.33 113.49-2.3 112.76-3.83 112.04-5.35 112.04-7.55L112.04-7.55Q112.04-9.65 112.84-11.15 113.64-12.65 115.09-13.63 116.54-14.6 118.54-15.05 120.54-15.5 122.89-15.5L122.89-15.5Q123.59-15.5 124.36-15.43 125.14-15.35 125.86-15.23 126.59-15.1 127.11-14.98 127.64-14.85 127.84-14.75L127.84-14.75 127.84-16.35Q127.84-17.7 127.64-18.98 127.44-20.25 126.76-21.28 126.09-22.3 124.86-22.93 123.64-23.55 121.64-23.55L121.64-23.55Q118.79-23.55 117.39-23.15 115.99-22.75 115.34-22.5L115.34-22.5 114.89-25.35Q115.74-25.75 117.51-26.1 119.29-26.45 121.79-26.45ZM146.39-2.25L145.94 0.45Q144.29 0.4 143.06 0.03 141.84-0.35 141.01-1.13 140.19-1.9 139.76-3.13 139.34-4.35 139.34-6.2L139.34-6.2 139.34-38.2 142.59-38.8 142.59-6.3Q142.59-5.1 142.81-4.38 143.04-3.65 143.49-3.23 143.94-2.8 144.66-2.6 145.39-2.4 146.39-2.25L146.39-2.25ZM159.13-2.25L158.68 0.45Q157.03 0.4 155.81 0.03 154.58-0.35 153.76-1.13 152.93-1.9 152.51-3.13 152.08-4.35 152.08-6.2L152.08-6.2 152.08-38.2 155.33-38.8 155.33-6.3Q155.33-5.1 155.56-4.38 155.78-3.65 156.23-3.23 156.68-2.8 157.41-2.6 158.13-2.4 159.13-2.25L159.13-2.25Z" opacity="1" transform="matrix(1,0,0,1,0,0)" fill="#6b7280" class="undefined-text-1" data-fill-palette-color="secondary" id="text-1"></path></svg></g></svg></g></svg></g></svg></g><g transform="matrix(1,0,0,1,0,0.29082313182281183)"><svg viewBox="0 0 105.650398969695 116.3292527291275" height="116.3292527291275" width="105.650398969695"><g><svg xmlns="http://www.w3.org/2000/svg" xmlns:xlink="http://www.w3.org/1999/xlink" version="1.1" x="0" y="0" viewBox="4.927000045776367 2.1700000762939453 86.88400268554688 95.66600036621094" enable-background="new 0 0 100 100" xml:space="preserve" height="116.3292527291275" width="105.650398969695" class="icon-icon-0" data-fill-palette-color="accent" id="icon-0"><path d="M74.239 2.17h-9.761v29.286H32.261V2.17h-9.762c-9.704 0-17.572 7.867-17.572 17.572v60.522c0 9.212 7.09 16.751 16.107 17.498V63.671h8.135v34.165h10.738V63.671h35.797v34.091c9.018-0.747 16.107-8.286 16.107-17.498V19.742C91.812 10.037 83.943 2.17 74.239 2.17z" fill="#6b7280" data-fill-palette-color="accent"></path></svg></g></svg></g></svg></g><defs></defs></svg><rect width="395.52" height="86.44023709081858" fill="none" stroke="none" visibility="hidden"></rect></g></svg></g></svg>